<svg width="694" height="331" viewBox="0 0 694 331" fill="none" xmlns="http://www.w3.org/2000/svg">
<path d="M15 98C21.3939 97.3606 24.5267 91.1245 28 87C32.7286 81.3848 36.2347 73.6417 39.5556 67C42.8674 60.3763 47.9196 52.0427 52.5 46.4444C54.6618 43.8022 55.8926 38.3637 58.5 36.2778C58.9236 35.9389 59 41.3714 59 41.5C59 45.005 59.1768 48.4534 59.5 51.9444C60.0513 57.8979 60 63.8041 60 69.7778C60 92.3832 59.142 113.92 54 136C49.1593 156.787 46.6026 182.983 32.9444 200.056C29.6899 204.124 25.1417 209.929 19.5556 210.944C13.0196 212.133 10.344 203.757 8.44444 198.944C5.12616 190.538 2 182.605 2 173.444C2 165.28 4.80808 159.448 8 152" stroke="white" stroke-width="3" stroke-linecap="round"/>
<path d="M136 46C135.125 53.8757 126.704 59.5169 123.556 66.4445C121.191 71.6464 117.573 78.8516 113 82.4445C106.818 87.3016 102.18 93.4911 95.5 97.9445C90.2 101.478 84.5078 105.795 78.4444 108C75.096 109.218 69.9071 111.093 67.4444 113.556C65.1215 115.879 61.8366 116.275 59.5556 118.556C58.7891 119.322 64.2297 128.82 64.9444 130.667C66.9159 135.759 67.4534 142.581 68.0556 148C68.3843 150.959 70.2887 153.51 70.7778 156.444C71.2963 159.555 70.8551 162.554 72.0556 165.556C74.089 170.639 76.4891 175.712 78 181C80.041 188.144 84.2776 198.394 91.4444 201C96.078 202.685 100.76 202.129 104.444 198.444C107.217 195.672 112.098 190.83 113.944 187.444C120.821 174.838 127.187 161.576 137 150.944C143.843 143.531 152.995 133.955 163.444 132.056C166.196 131.555 169.123 131.967 171.444 133.444C175.518 136.036 166.907 136 165 136C157.991 136 152.885 139.256 147.5 143.444C136.535 151.973 135 167.952 135 180.944C135 188.34 135.54 192.314 138.944 198.556C140.825 202.004 144.214 204.734 148.556 203.944C151.295 203.446 157.533 201.768 158.944 198.944C167.114 182.605 180.32 166.813 181 147.778C181.123 144.347 183 141.572 183 138C183 132.335 183.177 142.473 182.778 144.667C180.943 154.759 179.727 164.816 177.222 174.556C175.391 181.678 177 191.103 177 198.444C177 201.397 177.866 210.793 182 211C189.998 211.4 196.429 210.222 203.778 206.778C228.988 194.961 245.16 170.705 258.333 147.222C264.99 135.356 270.203 122.555 274.778 109.778C277.465 102.272 281.54 95.3206 284.944 88.1111C287.973 81.6972 290.018 74.9591 293 68.5556C295.782 62.5832 296.947 56.0862 299.222 49.9445C301.338 44.2306 306.838 39.7456 307 33.4445C307.122 28.6675 308.003 21.921 306 17.4445C303.801 12.5288 301.276 7.53282 298 3.22223C293.796 -2.30895 284.006 8.75697 281.778 11.7778C269.968 27.7861 273 49.8093 273 68.7778C273 88.6667 273 108.556 273 128.444C273 140.222 273 152 273 163.778C273 169.791 273.067 175.317 274.222 181.222C275.214 186.289 274.32 191.207 277 195.778C280.824 202.301 276.292 209 285.778 209C293.448 209 303.677 203.485 308 197" stroke="white" stroke-width="3" stroke-linecap="round"/>
<path d="M303 201C313.68 189.758 323.822 178.081 330.222 164C336.399 150.412 339.465 135.628 344.778 121.667C347.75 113.855 350.631 106.123 353.889 98.4444C356.612 92.0257 359.635 84.7774 361.778 78.1111C363.545 72.6124 365.26 66.1694 367.611 60.9444C369.479 56.7925 371 54.4314 371 49.7778C371 48.5634 374.538 32.6922 372.778 33.8889C370.747 35.2697 369.603 38.6858 368.333 40.6667C365.076 45.7483 361.625 50.6465 358.611 55.8889C355.937 60.539 351.951 67.2622 350.778 72.4444C349.655 77.4036 347.049 82.2365 345.056 86.8889C343.414 90.7191 343.618 94.8128 342 98.5555C336.904 110.34 332.632 123.215 328.556 135.444C323.997 149.12 317.458 162.078 312.111 175.444C307.372 187.291 303.48 200.023 297.944 211.556C295.386 216.885 293.308 222.353 291 227.778C288.269 234.197 283.362 240.281 280 246.444C274.846 255.893 266.817 264.017 260.556 272.556C251.426 285.005 244.703 299.029 236.056 312C233.075 316.471 231.428 321.446 228.5 326C224.225 332.65 234 325.592 234 321" stroke="white" stroke-width="3" stroke-linecap="round"/>
<path d="M307 194C307.413 189.046 310.943 185.177 313.444 181.111C318.414 173.035 323.328 165.315 326.778 156.444C328.92 150.937 332.521 146.232 334.556 141C336.41 136.232 342.658 130.052 346.778 127C349.521 124.968 354.219 120.785 357.5 120.056C387.937 113.292 377.367 163.735 373 178.778C370.428 187.636 371 196.376 371 205.556C371 210.625 369.972 211.958 374.778 209C383.442 203.668 386.986 194.336 392.5 186.5C405.308 168.298 413.559 149.371 433 137C439.331 132.971 445.757 129.919 452.333 126.5C455.79 124.703 461.605 119.84 465.778 120C468.142 120.091 470.922 123.861 473 124C475.809 124.187 467.37 124 464.556 124C459.556 124 458.21 123.658 454.778 126.778C453.523 127.919 446.739 131.82 445.444 132.056C437.594 133.483 428.424 142.141 423.444 148C420.732 151.192 418.816 156.695 416.5 160.556C414.948 163.143 415.644 165.985 414.444 168.556C413.108 171.419 412 174.262 412 177.444C412 185.078 408.315 205.57 419.5 208.056C421.124 208.416 421.649 210 423.5 210C425.407 210 427.315 210 429.222 210C433.69 210 435.889 209.364 439.5 206.556C443.783 203.224 445.212 198.623 447 193.556C449.373 186.831 452.18 180.348 454.444 173.556C455.34 170.87 455.441 167.742 456 164.944C456.611 161.892 458.825 159.415 459 156.444C459.175 153.478 461.47 151.349 462.556 148.667C463.452 146.452 463.248 143.61 464.556 141.556C466.418 138.629 467.444 135.808 468.056 132.444C468.207 131.609 469.698 127.801 469.222 128.667C466.785 133.098 464.322 139.163 463.222 144.222C461.508 152.107 457.959 158.83 456.944 166.944C456.546 170.129 455 172.552 455 176C455 180.332 454.938 184.669 455 189C455.074 194.146 457.176 204 463.444 204C472.134 204 476.847 203.401 484.056 198.444C493.652 191.847 499.737 182.249 505 172C514.859 152.8 521.746 132.11 530.333 112.333C536.618 97.8602 543.86 83.7001 549.556 69.0556C552.542 61.376 556.716 54.2605 559.556 46.5C561.914 40.0529 564.179 33.4911 567 27.2222C569.345 22.0121 570.845 18.1743 571 12.4444C571.067 9.95494 572.585 8.21185 569 11C563.506 15.2728 559.703 24.3353 558.222 31C556.468 38.8927 554.47 46.9599 553.222 55C551.759 64.427 553 74.93 553 84.5C553 92.3397 551 99.9744 551 107.778C551 115.871 547.838 122.123 547.056 129.944C546.246 138.044 544.485 146.516 542.444 154.389C540.647 161.322 540.579 169.103 538 175.778C535.394 182.522 535 190.708 535 197.944C535 204.614 531.178 210.039 531 216.444C530.949 218.293 531 220.15 531 222C531 222.63 531.573 220.878 531.889 220.333C535.172 214.671 538.833 209.229 542.111 203.556C552.222 186.056 565.346 168.029 571.389 148.556C578.477 125.716 577.807 99.8341 588.056 78.0556C592.516 68.5771 600.549 62.7255 609.5 58.0556C614.83 55.2749 628.372 55.0036 630.778 62.2222C632.54 67.5076 631.221 76.9101 629.556 82C626.437 91.528 619.534 100.668 611.444 106.5C604.493 111.511 597.613 114.929 589.556 117.889C582.92 120.327 574.243 122.645 567.222 123.778C563.122 124.439 550.977 125.488 550.056 119.5C549.93 118.681 549.511 114.465 550.556 114.167C554.882 112.931 558.206 135.591 558.444 136.778C563.372 161.32 566.894 187.327 578.444 209.889C590.025 232.509 611.21 237.736 634.667 233.278C652.396 229.908 668.936 225.79 685.333 218.222C686.522 217.674 691.889 215.884 691.889 213.611C691.889 212.272 691.085 213.83 691 214" stroke="white" stroke-width="3" stroke-linecap="round"/>
</svg>
