<svg version="1.2" xmlns="http://www.w3.org/2000/svg" viewBox="0 0 1640 664" width="1640" height="664"><style></style><path  d="m242.1 296.8l-9.4 33.5q-0.3 1.1-1.8 2.1-1.5 0.8-2.7 0.8-1.4 0-2.4-1-1.1-1-1.1-2.5 0-0.1 0-0.7 0.2-0.6 0.2-0.7l9.1-35.8h-1.2q-5.4 2.2-10.3 4-4.8 1.7-10.4 1.7-2.3 0-4.4-0.9-1.9-1.1-3.3-2.7-1.3-1.7-2.2-3.8-0.7-2.2-0.7-4.5 0-4.6 1.6-8.8 1.6-4.4 4.6-7.8 3.1-3.3 7-5.4 4.1-2 9-2 3.8 0 7.4 1.1 3.7 0.9 6.8 3.4l1.3-2.9 6.6-41.3q0.3-1.2 1.6-2.4 1.3-1.3 2.4-1.3 2.6 0 3.6 2.2 1.2 2.1 1.2 4.4v0.6l-8.3 46.6v3.2q0.3 0 0.5 0.1 0.3 0.2 0.4 0 0.2 0 0.6-0.3 0.6-0.4 1.2-0.8 0.7-0.5 1.3-0.9 0.7-0.4 1-0.7 0.2 0 0.5-0.2 0.3-0.3 0.4-0.4 9.3-6.7 18.4-13.9 9.2-7.1 17.3-15.4 1-1 3.1-4.1 2.1-3.2 4.4-6.6 2.5-3.4 4.7-6 2.2-2.6 3.7-2.6 1.5 0 2.5 1 1.1 1.1 1.1 2.7 0 0.3-0.1 0.4 0 0.2 0 0.3 0 0.3-0.3 1.2-0.3 0.7-0.4 1-0.5 0.9-1.5 2.5-0.9 1.4-1.9 2.9-0.9 1.5-1.7 2.6-0.7 1.1-0.7 1.2l-18.5 18.5-33.8 24.8q-0.6 0.6-0.7 0.9 0 0.1 0 0.9v0.7q0 0.3 0.1 0.4l27.5 41.9q0.3 1.3 1.1 2.2 0.7 0.9 1.4 1.8 0.7 0.7 1.2 1.7 0.6 0.9 0.6 2.2-0.1 1.6-0.6 1.9-0.5 0.2-2.1 0.2-1.6 0-3.1-0.9-1.4-0.9-2.7-2.2-1.4-1.5-2.4-3.1-0.8-1.8-1.3-3.1zm-33.6-12.6q0 2.7 1.1 4.9 1.2 2 4.1 2 3 0 5.9-0.7 2.9-0.7 5.7-1.9 2.8-1.1 5.4-2.6 2.7-1.4 5-2.7 0-0.3 0-1.2 0.2-1 0.2-1.2 0-2.5-1.3-4.4-1.2-2-3.1-3.4-1.7-1.4-4.1-2-2.2-0.8-4.4-0.8-2.9 0-5.5 1-2.7 1-4.7 2.9-2 1.9-3.1 4.6-1.2 2.4-1.2 5.5zm88.7 48.4q0-0.4 0-2.2 0-1.8 0-2.3-2.4-8.8-0.6-17.3 1.9-8.5 6.6-15.2 4.9-6.9 12.2-11.4 7.5-4.7 16.3-5.7h2.6q3.2 0 5.3 1.5 2.2 1.3 3.4 3.5 1.3 2.3 1.7 5 0.6 2.8 0.6 5.6-0.1 3.8-1 7.5-0.7 3.5-1.7 7.1-0.9 3.7-1.8 7.4-0.8 3.5-0.8 7.4v0.9q0.2 0.3 0.3 1.8 0.3 1.3 0.4 1.6 0.3 0 1.5 0.1 1.2 0 1.5 0 1.4 0 2.7 0 1.5-0.1 3-0.7l27.9-12.8q0.1 0 0.4 0 0.4-0.1 0.6-0.1 1.5 0 2.3 0.9 1 0.9 1 2.3 0 0.8-0.1 1.5 0 0.6-0.7 1.2-1.1 0.7-3.9 2-2.6 1.3-5.7 2.9-3.1 1.6-5.9 3.1-2.6 1.4-3.8 1.9-2 1.1-4.5 2.1-2.5 0.9-5.2 1.8-2.6 0.8-5.2 1.4-2.5 0.4-4.6 0.4-3.2 0-5.2-1-2.1-1.2-3.1-2.9-1-2-1.5-4.4-0.2-2.7 0.1-5.5-3 2.4-6.4 5-3.3 2.6-7 4.8-3.7 2.2-7.5 3.8-3.8 1.6-7.8 1.6-2.2 0-3.9-1.1-1.8-1.2-2.5-3.5zm7.9-7v4q3.4 0 7.5-1.9 4.1-2.1 8.1-5 4-2.9 7.2-6.1 3.2-3.4 5-6 0.2-4.4 1.2-8.3 1.2-4.1 1.2-8.4 0-0.3-0.1-0.9 0-0.5 0-0.8-1.9-1.7-3.3-2-1.3-0.3-3.5-0.3-0.3 0-1.3 0-0.9 0-1.2 0.2-0.8 0.7-2.9 2.8-2.1 1.8-4.4 4.2-2.2 2.3-4.3 4.4-1.9 2-2.6 2.7-0.2 0-0.6 0.6-0.5 0.5-1 1.2-0.5 0.7-0.9 1.4-0.3 0.6-0.5 1.1zm70.4-4.8l1.6-10.1q0 0 0.2-0.1 0.2-0.3 0.4-0.4 0.3-1.4 1.2-4.6 0.9-3.2 1.9-6.8 1.1-3.9 1.9-7.1 1.1-3.2 1.5-4.4 0.2-0.5 0.9-2.4 0.9-2.1 1.9-4.4 1.1-2.4 2.1-4.7 1-2.4 1.5-3.5 1-2.1 3.1-5.4 2.2-3.4 4.8-6.3 2.8-3.1 5.8-5.3 2.9-2.3 5.4-2.3 1.3 0 2 0.7 0.9 0.8 1.2 1.8 0.4 0.9 0.6 2.1 0.1 1.1 0.1 2 0 7.6-2.2 15.2-2.1 7.5-5.8 14.4-3.7 6.8-8.8 13-5 6-10.6 10.8-0.2 0.4-0.5 1.7-0.1 1.4-0.3 1.9v0.3q0 3 1.5 4.7 1.6 1.8 3.8 2.7 2.2 0.7 4.8 1 2.8 0.3 5.3 0.3 1.3 0 3.8-1.3 2.6-1.3 5.3-2.9 2.8-1.7 5.4-3 2.7-1.3 4-1.3 1.3 0 2 0.8 0.7 0.9 0.7 2.2 0 2.2-3.3 4.7-3.4 2.5-7.8 4.7-4.4 2-8.5 3.5-4 1.4-5.3 1.4-4.4 0.9-8.2 0.1-3.8-0.9-6.6-2.8-2.8-2-4.7-4.8-1.7-3-2.1-6.1zm29.4-52l0.1-1.6q-1.4 0-3.1 2.2-1.7 2-3.3 4.8-1.6 2.8-2.9 5.4-1.2 2.5-1.4 3.4-0.4 1-1.3 3.3-0.9 2.4-1.8 5-0.8 2.5-1.7 4.8-0.8 2.4-1.1 3.4h0.8q0 0 0.8-1 0.9-1.2 2-2.6 1.1-1.5 2.3-3 1.3-1.6 1.9-2.6 0.6-0.9 1.6-2.6 1.1-1.9 1.4-2.4 0.6-1.6 1.6-4.2 1-2.8 1.9-5.4 0.9-2.6 1.5-4.5 0.7-2.1 0.7-2.4zm7.3 99.8q0-4.3 1.1-9.4 1-5.2 2.2-10.4 1.2-5.2 2.2-10.2 1.1-5 1.1-9.4v-1.2l3.5-9.8q2-4.2 4.5-8.7 2.5-4.6 5.6-8.4 3.2-3.9 7.3-6.5 4.1-2.8 9.3-3.5 1.7-0.3 3.8 0.7 2 0.9 3.8 2.4 1.9 1.5 3 3.4 1.2 1.9 1.5 3.6 0 0.3 0 1.2 0 0.9 0 1.9 0 1 0 1.9 0 0.9 0 1.3-0.1 4.1-1.2 7.9-1.2 3.9-1.2 7.4v0.4q0.4-0.3 2-1 1.6-0.7 3.7-1.6 2.2-0.9 4.7-1.9 2.6-1 5-1.9 2.3-0.9 4.1-1.3 1.9-0.6 2.6-0.6 1.8 0 2.1 0.6 0.4 0.5 0.4 1.6 0 1.7-1.9 3.3-1.9 1.6-5 3-3 1.5-6.6 2.8-3.5 1.1-6.9 2.1-3.2 1.1-5.7 2.1-2.5 0.8-3.4 1.3-1.6 1.2-3.1 2.5-1.3 1.3-2.8 2.3-1.5 1-3.1 1.7-1.6 0.8-3.6 0.8-3.1 0-6-1.7-2.8-1.7-5.2-3.5l-0.7 0.6q0 0.1-1 3.9-0.9 3.8-2.3 9-1.1 4.9-2.5 9.9-1.2 5-1.9 7.8-0.3 1.6-0.5 3.3-0.1 1.6-0.7 3.3-0.5 1.4-1.6 2.4-1.2 1.1-3.3 1.1l-1.9-0.1q-0.8-1.7-1.1-3-0.3-1.5-0.3-3.4zm22.9-47.2l-3.1 4.1q1.6 1 3.3 1.1 1.8 0.2 3.4 0 1.8-0.2 3.4-0.7 1.7-0.4 3.4-0.4 0.3 0 1.3 0 1-0.1 1.2-0.1 1.7-0.9 2.7-3.2 1.1-2.4 1.5-5 0.6-2.7 0.8-5.1 0.1-2.7 0.1-4.1 0-1.4-0.1-2.8-0.1-1.5-0.7-2.7-0.5-1.3-1.3-2.2-0.9-0.9-2.5-0.9-0.3 0-1 0.2-0.6 0-0.9 0-0.6 1.7-2.5 4.8-1.8 2.9-3.9 6.1-1.9 3.3-3.5 6.3-1.6 3-1.6 4.6zm46.2 11.9q0-0.5 0-2.2 0-1.8 0-2.4-2.4-8.8-0.6-17.3 1.9-8.5 6.6-15.2 4.9-6.9 12.2-11.4 7.5-4.6 16.3-5.6h2.6q3.3 0 5.3 1.5 2.2 1.3 3.4 3.5 1.3 2.2 1.7 5 0.6 2.8 0.6 5.6-0.1 3.8-0.9 7.4-0.8 3.5-1.8 7.2-0.9 3.7-1.8 7.3-0.8 3.5-0.8 7.5v0.9q0.2 0.3 0.3 1.7 0.3 1.3 0.4 1.6 0.3 0 1.5 0.2 1.2 0 1.5 0 1.4 0 2.8 0 1.4-0.1 2.9-0.7l27.9-12.8q0.1 0 0.4 0 0.4-0.2 0.6-0.2 1.5 0.1 2.3 0.9 1.1 0.9 1.1 2.4-0.1 0.7-0.2 1.4 0 0.6-0.7 1.2-1.1 0.7-3.9 2.1-2.6 1.3-5.7 2.9-3.1 1.6-5.8 3-2.7 1.5-3.9 1.9-2 1.2-4.5 2.2-2.5 0.9-5.1 1.7-2.7 0.9-5.3 1.5-2.5 0.4-4.6 0.4-3.2 0-5.2-1.1-2.1-1.1-3.1-2.9-1-1.9-1.4-4.4-0.3-2.6 0-5.4-3 2.3-6.3 4.9-3.4 2.7-7.1 4.9-3.7 2.1-7.5 3.7-3.8 1.6-7.7 1.6-2.2 0-4-1-1.8-1.2-2.5-3.5zm8-7.1l-0.1 4q3.4 0 7.5-1.9 4.1-2 8.1-4.9 4-2.9 7.2-6.1 3.2-3.4 5-6 0.2-4.4 1.2-8.4 1.2-4.1 1.2-8.3 0-0.3-0.1-0.9 0-0.6 0-0.9-1.9-1.6-3.3-1.9-1.3-0.3-3.5-0.3-0.3 0-1.3 0-0.9 0-1.2 0.1-0.8 0.8-2.9 2.8-2.1 1.9-4.4 4.2-2.2 2.4-4.3 4.4-1.9 2.1-2.6 2.8-0.2 0-0.6 0.6-0.4 0.4-1 1.1-0.5 0.8-0.9 1.5-0.3 0.6-0.5 1zm71.3 11.1q-0.1-0.4-0.1-1.9 0-1.4 0-1.9 0-4.7 1.6-9.1 1.8-4.5 4.3-8.6l8-20.6 7.9-28.7 6.5-12.7q0.3-0.7 1-0.7 0.9 0 1.6 0 3.1 0 3.8 2.3 0.7 2.2 0.7 4.6 0 8.8-2.7 16.5-2.6 7.6-6.8 15.1 2.7-1.6 5.3-2.6 2.8-1.1 5.9-1.1 3.8 0.1 6.1 1.5 2.4 1.4 5 4.4 0.1 0.3 0.1 2 0 1.6 0 2 0 4.4-2.1 8.3-2 4-5.3 7.2-3.2 3.2-7.2 5.8-3.9 2.5-7.9 3.8v0.8q0 1.4 0.9 2.6 0.9 1 2 1.9 1.2 0.7 2.5 1.2 1.3 0.3 2.5 0.3 3.2 0 6.7-0.3 3.6-0.3 6.9-1 3.6-0.8 6.6-2 3.1-1.3 5.6-3.4 1.2-0.8 2.5-2.7 1.3-1.9 2.5-3.8 1.3-1.9 2.4-3.4 1.2-1.5 1.7-1.5 1.8 0.1 2.5 1.7 0.9 1.4 0.9 2.9 0 0.1-0.2 0.7 0 0.5 0 0.6-2.8 5.9-6.4 9.8-3.6 3.8-8.1 6.1-4.6 2.2-10.3 3.2-5.6 0.9-12.4 0.9-5.9-0.1-10-2.1-3.9-2.2-6.6-7.4-0.1-0.6-0.5-1.5-0.3-1-0.8-1.9-0.3-1-0.8-1.9-0.6-0.8-1.5-1.1l-7.1 14.9q-0.4 1-1.7 1.3-1.2 0.3-2.2 0.3-0.9 0-1.8 0-0.7-0.2-1.5-0.8zm19.5-27.6q0 0.5 0.4 1.5 0.4 1 1 2 0.6 1.1 1.2 1.9 0.7 0.8 1.3 0.8 0.6 0 1.5-0.3 0.9-0.4 1.7-0.7 1.1-0.5 1.8-0.9 0.7-0.4 1.2-0.9 0.4-0.6 1.6-1.9 1.2-1.3 2.5-2.8 1.5-1.4 2.6-2.7 1.4-1.3 1.7-1.9 0.1-0.3 0.4-1.1 0.4-0.7 0.7-1.4 0.5-0.7 0.8-1.5 0.3-0.7 0.4-1 0-0.1 0-0.3 0-0.3 0-0.4 0-0.5-0.1-0.8 0-0.4-0.8-0.7h-2.7q-1.8 0-3.4 0.3-1.5 0.1-3.1 1.1-0.4 0.5-1.8 1.6-1.3 1.1-2.6 2.4-1.3 1.1-2.6 2.3-1.4 1.2-1.7 1.5-0.3 0.4-1.1 1.9-0.9 1.4-0.9 2zm151.4 1q-0.1 0-0.3 0 0-0.1 0-0.1l-0.3 0.1q-0.2 0.2-1.1 0.6-0.9 0.4-1.2 0.7-1 0.9-3.7 3.2-2.6 2.2-5.6 4.7-2.9 2.5-5.5 4.8-2.7 2.2-3.7 3.1-0.3 0.3-1.2 1.4-0.9 1.2-2.1 2.7-1 1.4-2.2 2.6-1.1 1-2 1-1.6 0-3.5-0.9-1.9-1-1.9-2.9 0-1.2 1.7-3.4 2-2.2 4.6-4.8 2.8-2.6 6.2-5.4 3.5-2.8 6.7-5.4 3.3-2.6 5.9-4.8 2.8-2.3 4.3-3.7-4.2-6-8.2-10.8-3.8-4.9-8.2-10.7l0.1-1.7q0-2.5 1-3.2 1-0.9 3.4-0.8 1.6 0 2.6 0.3 1 0.3 2.9 1.3 7.1 1.2 12.8 2.1 5.8 0.7 12.1 0.8h3.7q0.4-0.3 1.2-1.2 0.8-0.9 1.7-1.9 0.9-1 1.6-1.9 0.9-1 1.2-1.4 0.8-0.9 0.8-2.2 0-1.1-0.5-2.2-0.4-1.2-1-2.4-0.6-1.3-1-2.5-0.4-1.3-0.4-2.6v-1l8.7-35.8q0.8-3.2 3.1-6.7 2.4-3.6 5.5-6.6 3.1-2.9 6.7-4.6 3.9-1.9 7.4-1.9 1.7 0 2.8 0.9 1 0.9 1.6 2.2 0.5 1.2 0.7 2.6 0.3 1.5 0.3 2.8-0.1 3.5-0.5 6.9-0.5 3.4-1.9 6.7l-11.6 27.8q-0.3 1.2-1.1 2.5-0.8 1.3-1.8 2.8-0.9 1.3-1.9 2.6-0.9 1.3-1.6 2.2h1.1q2.5 0 4.6-1 2-1 4.4-1.9 14.6-5.9 24.5-15.4 10-9.7 16.3-24.4 0.6-0.6 1.4-0.8 0.8-0.1 1.6-0.1 1.4 0 2.5 1 1 0.9 1 2.4 0 0.1 0 0.6 0 0.4-0.2 0.6-0.6 1.1-1.7 3.8-1.1 2.6-2.6 6-1.3 3.2-2.8 6.8-1.4 3.5-2.8 6.9-1.3 3.2-2.3 5.9-0.9 2.6-1.4 3.9-0.6 1.9-1.5 4.8-0.7 3-1.6 6.5-0.9 3.3-1.8 7-0.9 3.7-1.6 6.7-0.6 3-1.1 5.2-0.3 2.2-0.3 2.7v1.4q0 0.4-0.4 2.6-0.5 2.2-1.1 5-0.5 2.6-1.3 5.4-0.6 2.6-0.9 4.1-1 3.8-2.8 8.5-1.6 4.6-4.3 8.7-2.6 4-6.3 6.8-3.7 2.6-8.7 2.6-6.8-0.1-13.6-2.4-6.7-2.5-12.8-6.5-6.2-4-11.4-9-5.3-5.1-9.4-10.3zm20-22l-15 16.3q0 0 0.3 0.6 0.5 0.4 1 1.2 0.6 0.7 1.2 1.4 0.6 0.8 1 1.1 3.5 3.8 7.9 7.8 4.4 3.8 9.2 7.2 5 3.2 10.3 5.3 5.4 1.9 10.9 1.9 3.8 0 6-2.4 2.3-2.5 3.6-5.9 1.3-3.5 2.4-7.1 1.1-3.7 2.8-5.9l5.6-26.3v-0.9q0.6-3.7 1.2-6.8 0.8-3 1.7-6.1 1-3.1 2-6.4 1.1-3.6 2.4-7.8-1.6 1.3-3.8 2.9-2.2 1.6-4.4 3.1-2.2 1.4-4.4 2.7-2.2 1.2-3.8 2.1-1.5 0.7-4.4 1.9-2.8 1-5.8 2.1-2.8 1.2-5 2.1-2.2 0.7-2.7 0.8l-8.7 1.5q0 0-0.6 0.6-0.6 0.5-0.7 0.8-0.3 0.3-0.9 1.2-0.6 0.9-1.3 1.8-0.8 0.7-1.3 1.6-0.6 0.8-0.9 1.1 0.4 0 1.7-0.1 1.5-0.1 3 0.2 1.6 0.1 2.7 0.8 1.2 0.6 1.2 2 0 1.4-1.3 2.1-1.3 0.6-2.4 0.8-0.6 0-2 0.1-1.5 0-3.2 0.1-1.8 0.2-3.3 0.3-1.4 0.2-2.2 0.2zm-28.5-0.9l8.9 11.9 10.4-10.5v-0.6q-1.6-0.1-3.7-0.4-2-0.3-4.3-0.5-2.4-0.1-4.7-0.3-2.2-0.3-4-0.3h-0.4q-0.3 0.1-1.2 0.4-0.7 0.2-1 0.3zm59-72.1q-2.5 0-4.7 1.3-2.2 1.1-4.1 3-1.8 1.8-3.1 4.1-1.3 2.2-1.8 4.6l-6.5 25q-0.3 0.9-0.5 2.5-0.1 1.6-0.3 3.5-0.1 1.8-0.1 3.5 0 1.6-0.1 2.5h0.9q3.3-5.8 6.8-11.7 3.7-5.8 6.6-12 3-6.1 4.9-12.6 2-6.4 2-13.7zm49.7 111.8q0-0.2 0.1-1 0.2-0.9 0.3-1.8 0.2-1 0.3-1.8 0.2-0.8 0.2-1.1v-0.6-0.9l2.1-9.2q2.5-5.3 5.1-10.1 2.8-4.8 6.4-8.5 3.5-3.6 8-5.8 4.7-2.2 11.3-2.2 1.3 0 3.2 0.9 2.1 0.8 4 2 2 1.1 3.6 2.5 1.8 1.1 2.7 2.2 4.5-0.8 6.6-0.7 2-0.2 3.5-0.2 1.4-0.1 3.1-0.6 1.7-0.4 5.2-1.8 2.5-0.8 4.9-0.8 1 0 1.9 0.9 1 0.9 1 2.1 0 1.5-1 2.6-1.1 1.2-2.5 1.5l-18.4 4-1.6 0.7q-0.2 7.9-3.6 15.1-3.3 7.2-8.9 12.6-5.6 5.4-13 8.6-7.3 3-15.2 3-0.6 0-1.9 0-1.3-0.2-1.8-0.2-3.2-1.3-4.5-4.8-1.1-3.5-1.1-6.6zm9.3 2.9q0.2 0.8 1.2 0.8 1 0 1.5 0 5.2 0 10.8-2.6 5.6-2.8 10-7 4.6-4.4 7.4-9.8 2.9-5.5 2.9-11.1-4.7 0-9.3-0.8-4.7-0.9-9.1-0.9h-0.2l-12.2 12.9q-1 1-1.6 2.7-0.6 1.8-0.9 3.8-0.3 2.1-0.4 4.1-0.2 2.1-0.2 3.7 0 0.4 0 2 0 1.7 0.1 2.2zm67.6-11.9q-1.2 0.6-2.5 0.8-1.3 0-2.6 0-1.3-0.1-2.7 0.1-1.3 0-2.6 0.6-2.5 0.2-3.2-0.3-0.8-0.8-0.5-1.9 0.3-1.2 1.7-2.7 1.3-1.4 2.9-2.5 1.8-1 3.7-1.4 2-0.4 3.6 0.2-0.7-2.7 0.2-4.6 0.9-1.9 3.5-1.9 1.3 0 2.4 0.3 1.1 0.2 1.7 1.2 2.2-1.3 5.9-4.4 3.7-3.2 7.5-6.4 4-3.3 7.2-5.8 3.2-2.6 4.4-2.6 0.4 0 1.2 0.1 0.7 0 1.4 0.3 0.9 0.3 1.3 0.7 0.6 0.3 0.6 1.1v6.3q-1 4.1-2.1 7.7-0.9 3.5-1.6 7-0.6 3.4-0.9 6.9-0.3 3.5-0.3 7.5 2.3 0 5.5-1 3.4-1 6.8-2.5 3.4-1.4 6.3-2.9 2.9-1.6 4.7-2.6 0.3-0.1 1.3-1 1-0.9 2.2-1.8 1.2-1 2.2-1.7 1.2-0.9 1.5-1.2 0.3-0.3 1.4-0.7 1.2-0.6 1.4-0.7 0.6-0.2 1 0.4 0.6 0.4 1 1.2 0.5 0.6 0.6 1.3 0.3 0.6 0.3 0.7 0 1.5-1.2 3-1.2 1.4-2.8 2.7-1.6 1.2-3.4 2.4-1.6 1-2.5 1.9-1.1 0.5-4.1 1.8-2.8 1.4-6 2.8-3.2 1.5-6.2 2.8-2.7 1.3-3.9 1.9-0.3 0.1-1.3 0.4-1.1 0.1-2.2 0.6-1.2 0.4-2.4 0.7-1 0.1-1.3 0.3-1.3 0.4-2.1 1.4-0.5 1.1-1.3 2.1-0.6 1-1.6 1.7-0.9 0.8-2.9 0.5-0.2-0.2-1.3-0.6-1.1-0.6-1.4-0.9-3.5-2.5-6-4.7-2.4-2.2-4.5-4.3-2-2.2-3.9-4.7-1.8-2.5-4.1-5.6zm9.3-5.8q1 2.2 1.8 4.3 1.1 2 2.4 3.9 1.3 1.8 2.9 3.1 1.7 1.3 4.2 1.6 0.3-2.2 0.8-5.2 0.4-3.1 1-6.5 0.6-3.3 1.4-6.6 0.9-3.3 1.9-5.8h-1.5q-2.3 1.6-4.4 3.2-1.9 1.5-3.8 2.9-1.9 1.3-3.1 2.3-0.1 0.2-0.4 0.5-0.3 0.3-0.5 0.3-0.1 0.3-1.3 1-1.2 0.7-1.4 1zm16.4-13.4q-0.4 0-0.4 0.7 0 0.6 0.4 0.6 0.6 0 0.6-0.6 0-0.7-0.6-0.7zm67.7 7.3q-0.3-0.6-1.1-1.6-0.5-1.2-1.4-1.2-2.8 0-5.7 2.5-2.8 2.3-5.5 5.6-2.5 3.3-4.4 6.6-1.8 3.4-2.2 5.3-0.6 1.9-0.6 4.5 0 2.7-0.5 5-0.3 2.3-1.6 4-1.2 1.6-4.3 1.5-1.9 0-2.6-0.7-0.6-0.9-0.6-2.8 1.1-7 1.8-11.5 0.9-4.6 1.5-7.9 0.8-3.6 1.4-6.8 0.7-3.3 1.6-8 0.9-4.7 2-11.5 1-6.8 2.5-17.4 0-2.2 0.3-6.1 0.3-4.1 1.1-8.7 0.9-4.6 2.2-9.3 1.4-4.9 3.3-8.7 2-3.8 4.7-6.1 2.6-2.5 6.1-2.5 2.5 0 4 1.8 1.6 1.6 2.3 4 0.9 2.3 1 5 0.2 2.4 0.2 4.1-0.1 3.6-0.7 7-0.6 3.2-1.4 6.6-0.9 3.2-2 6.6-1 3.2-1.8 6.4l-9.4 17.8-5.3 11.4 0.7 1.7q3.1-3.7 6.3-5.6 3.3-2 8.1-2.3 2.2-0.1 3.7 1.3 1.6 1.5 2.6 3.8 1 2.2 1.4 4.6 0.6 2.3 0.7 3.8 0 0.9-0.1 2.8-0.2 1.9-0.3 4.4-0.2 2.5-0.3 5.3 0 2.6 0.2 4.9 0.3 2.4 1.2 4.1 1 1.7 2.6 2 5.7-0.8 10.1-1.9 4.6-1.3 8-3.5 3.3-2.3 5.6-5.8 2.3-3.5 3.5-8.7 1-1.4 2.9-1.4 2.2 0 2.8 1.6 0.7 1.6 0.7 3.5 0 5.9-3.8 10.4-3.7 4.4-9.4 7.3-5.7 2.9-12.3 4.5-6.6 1.4-12.2 1.4-3.5 0-4.8-2.4-1.3-2.4-1.6-5.8-0.1-3.5 0-7 0.2-3.6 0-5.8 0-0.7-0.1-2.3-0.1-1.8-0.4-3.7-0.2-1.9-0.5-3.6-0.2-1.8-0.2-2.5zm-11.9-35.2q0 0.4 0 1.4 0 1.1 0 1.9 0.1 0.9 0.1 1.7 0 0.7 0 0.8l0.7 0.8q1.5-0.9 2.7-3.1 1.3-2.2 2.3-5.3 1.1-3 1.8-6.4 0.9-3.5 1.5-6.9 0.6-3.3 0.9-6.1 0.5-2.8 0.5-4.6 0-0.6-0.2-2.2 0-1.6-0.1-1.9l-0.7-1.4q-3.6 2.7-5.5 6.5-1.9 3.8-2.8 7.9-0.9 4.1-1 8.5-0.2 4.4-0.2 8.4zm53.3 50.6l2.1-13.1q0.1-0.7 0.8-2.6 0.8-1.9 1.5-4.1 0.9-2.2 1.7-4.1 0.7-1.9 1-2.6 0.9-2.4 1.6-3.1 0.9-0.7 3.1-0.7 2.3 0 3.1 1.6 0.7 1.6 0.7 3.8 0 3.8-1.2 7-1.1 3.1-2.4 6.3-1.3 3.1-2.5 6.8-1 3.5-1.1 8.2 0 0.5 0 1.7 0 1 0.2 2.2 0.1 1 0.6 1.9 0.4 0.8 1.1 0.8 3.8 0 7.6-1.5 4-1.6 7.7-3.6 3.8-2.2 7.2-4.7 3.5-2.6 6.3-4.5 1-0.7 1.5-1.4 0.5-0.8 1-1.4 0.4-0.7 1-1.1 0.8-0.6 2.2-0.6 1.9 0 3.1 0.9 1.3 0.7 1.3 2.8 0 0.8-0.2 1.6 0 0.7-0.7 1.3-0.1 0.4-1.2 1.2-0.9 0.7-1.9 1.6-1 0.7-1.9 1.4-0.9 0.6-1.3 0.8-0.2 0-0.9 0.4-0.6 0.3-0.7 0.3-0.2 0.1-0.5 0.4-0.1 0.2-0.1 0.3-3.1 2.3-6.8 4.8-3.5 2.4-7.5 4.4-3.9 1.9-8.2 3.2-4.1 1.3-8.2 1.3-3.5 0-5.4-1.8-1.7-1.9-2.6-4.7-0.9-2.8-1-5.9-0.1-3-0.1-5.5zm9.2-51.6q0-2.6 1.1-3.5 1-0.9 3.6-0.8 1.4 0 2.7 0.6 1.3 0.4 1.3 2.3 0 1.9-1.9 3.5-1.8 1.6-3.6 1.6-1.7 0-2.4-1-0.8-1.2-0.8-2.7zm44.5 68.9q-0.2-0.4-0.2-1.9 0-1.5 0-1.9 0-4.7 1.7-9.1 1.7-4.5 4.2-8.6l8-20.6 7.9-28.7 6.5-12.7q0.3-0.8 1-0.8 0.9 0 1.6 0 3.1 0 3.8 2.4 0.8 2.2 0.8 4.5-0.1 8.8-2.7 16.6-2.7 7.6-6.8 15 2.6-1.6 5.2-2.6 2.8-1 5.9-1 3.8 0 6.2 1.5 2.3 1.3 4.9 4.4 0.2 0.3 0.2 1.9 0 1.6-0.1 2.1 0 4.4-2 8.3-2.1 4-5.3 7.2-3.3 3.2-7.2 5.8-4 2.5-8 3.8v0.7q0 1.5 0.9 2.7 0.9 1 2.1 1.9 1.1 0.7 2.4 1.2 1.4 0.3 2.5 0.3 3.3 0 6.8-0.3 3.5-0.3 6.9-1 3.5-0.9 6.6-2 3-1.3 5.5-3.4 1.2-0.9 2.5-2.8 1.4-1.9 2.5-3.8 1.4-1.9 2.4-3.3 1.2-1.5 1.8-1.5 1.7 0 2.4 1.6 0.9 1.5 0.9 3 0 0.1-0.1 0.7 0 0.4 0 0.6-2.8 5.8-6.5 9.8-3.6 3.8-8.1 6.1-4.5 2.2-10.3 3.2-5.5 0.9-12.4 0.8-5.9 0-10-2.1-3.9-2.2-6.5-7.3-0.2-0.6-0.6-1.5-0.3-1-0.7-1.9-0.3-1-0.9-1.9-0.6-0.9-1.5-1.2l-7.1 14.9q-0.4 1.1-1.7 1.4-1.2 0.2-2.2 0.2-0.9 0-1.8 0-0.7-0.1-1.4-0.7zm19.4-27.6q0 0.4 0.4 1.5 0.5 1 1 2 0.6 1 1.2 1.9 0.7 0.7 1.3 0.8 0.6 0 1.5-0.3 0.9-0.5 1.8-0.8 1-0.4 1.7-0.8 0.7-0.5 1.2-0.9 0.4-0.6 1.6-1.9 1.2-1.3 2.5-2.8 1.5-1.4 2.7-2.8 1.3-1.3 1.6-1.9 0.1-0.2 0.4-1 0.5-0.7 0.8-1.4 0.4-0.8 0.7-1.5 0.3-0.7 0.4-1 0-0.2 0-0.3 0-0.3 0-0.5 0-0.4-0.1-0.7 0-0.4-0.7-0.7h-2.8q-1.8 0-3.4 0.2-1.5 0.2-3.1 1.2-0.4 0.4-1.7 1.6-1.4 1-2.7 2.3-1.3 1.2-2.6 2.4-1.3 1.1-1.6 1.4-0.3 0.5-1.2 1.9-0.9 1.5-0.9 2.1zm48.1 20.1q0-5.1 1.2-10 1.2-4.8 3.3-9.5 1.3-5 2.9-9.2 1.7-4.4 3.3-7.5 1.8-3.2 3.5-4.9 1.8-1.9 3.7-1.9 1.9 0 2.8 1.2 1 1 1 2.9v0.9l-7.3 17.1q-0.1 0.3-0.7 1.2-0.6 0.7-0.6 1v0.6q-0.3 0.7-0.9 2.3-0.4 1.6-1 3.5-0.6 1.8-1.2 3.4-0.4 1.6-0.6 2.2-0.3 0.7-0.4 2.3-0.2 1.6-0.2 2.1 0 0.3 0.2 1.1 0.1 0.8 0.4 1.1 5.6-2.2 11.9-6.6 6.4-4.5 12.3-10 5.9-5.6 10.5-11.6 4.7-6.1 6.9-11.8 0.3-0.2 1.5-0.4 1.1-0.3 1.4-0.3 0.2 0 0.3 0 0.3 0 0.5 0 1.4 0 2.4 1.3 1.2 1.3 1.2 2.6 0 0.2-0.1 0.6 0 0.5 0 0.6-2.7 6.3-4.6 12-2 5.7-2 12.3 0 2.8 0.1 4.5 0.3 1.7 1.3 4.7 0.2 0.8 0.6 0.8 0.6 0 1.1 0 4.4 0 8.8-3.4 4.4-3.3 7.9-8.1 3.7-5 5.9-10.4 2.2-5.4 2.2-9.5 0-2.2-0.4-4.1-0.3-2.1-0.3-4.1 0-1.9 1.1-3.4 1-1.5 2.9-1.5 1.3 0.1 2.5 0.9 1.2 0.8 2.2 1.8 1.1 1 2.3 1.9 1.2 0.9 2.6 1.3 3.6 0.1 5.5 0.1 2 0 3 0 1.2 0 1.9-0.2 0.8-0.3 1.8-0.7 1-0.6 2.8-1.4 1.9-0.9 5-2.4 0.1-0.1 0.6-0.1 0.4 0 0.6 0 1.3 0 2.3 0.9 1 0.9 1 2.3 0 1.6-0.9 2.7-0.7 0.8-1.9 1.6-1.2 0.5-2.6 1.1-1.3 0.5-2.5 0.7-3.4 1.3-5.3 1.9-1.8 0.5-2.8 0.7-0.9 0.2-1.5 0.3-0.5 0-1.7 0-1 0-2.9 0.2-1.8 0-5.2 0.2-0.3 0-0.8 0.3-0.5 0.3-0.6 0.5-0.9 6.6-4.2 13.4-3.1 6.8-8.1 12.4-5 5.6-11.6 9.1-6.5 3.5-13.5 3.5-1.4-0.1-2.8-1.2-1.1-1.3-2.1-3-0.9-1.6-1.5-3.2-0.6-1.8-0.7-2.6-0.2-0.6-0.5-2.2-0.1-1.6-0.4-3.5-0.1-2-0.4-3.4-0.1-1.6-0.1-2.4-2.7 2.8-7 6.7-4.2 3.8-9.2 7.5-5 3.5-10.1 6.1-5 2.5-9.1 2.5-3.8-0.1-5.4-2.7-1.5-2.6-1.5-5.7zm112.1 4.4q0-0.5 0-2.2 0-1.8 0-2.4-2.5-8.8-0.7-17.3 1.9-8.5 6.7-15.2 4.8-6.9 12.2-11.4 7.4-4.6 16.2-5.6h2.7q3.2 0 5.2 1.5 2.2 1.3 3.4 3.5 1.3 2.2 1.7 5 0.6 2.8 0.6 5.6 0 3.8-0.9 7.4-0.8 3.5-1.8 7.2-0.9 3.7-1.8 7.3-0.7 3.5-0.7 7.5v0.9q0.1 0.3 0.2 1.7 0.3 1.3 0.5 1.6 0.3 0 1.4 0.2 1.2 0 1.5 0 1.5 0 2.8 0 1.5-0.1 2.9-0.7l27.9-12.8q0.2 0 0.4 0 0.5-0.2 0.6-0.2 1.5 0.1 2.4 0.9 1 0.9 1 2.4 0 0.7-0.2 1.4 0 0.6-0.7 1.2-1 0.7-3.8 2.1-2.7 1.3-5.7 2.9-3.1 1.6-5.9 3-2.7 1.5-3.8 1.9-2.1 1.2-4.6 2.2-2.5 0.9-5.1 1.7-2.6 0.9-5.3 1.5-2.5 0.4-4.5 0.4-3.3 0-5.3-1.1-2-1.1-3.1-2.9-1-1.9-1.4-4.4-0.3-2.6 0-5.4-2.9 2.3-6.3 4.9-3.4 2.7-7.1 4.9-3.6 2.1-7.4 3.7-3.9 1.6-7.8 1.6-2.2 0-4-1-1.7-1.2-2.4-3.5zm7.9-7.1v4q3.3 0 7.5-1.9 4.1-2 8-4.9 4-2.9 7.2-6.1 3.3-3.4 5-6 0.2-4.4 1.2-8.4 1.2-4.1 1.2-8.3 0-0.3-0.1-0.9 0-0.6 0-0.9-1.9-1.6-3.2-1.9-1.3-0.3-3.5-0.3-0.3 0-1.3 0-0.9 0-1.2 0.1-0.9 0.8-3 2.8-2 1.9-4.4 4.2-2.2 2.4-4.2 4.4-1.9 2.1-2.7 2.8-0.1 0-0.6 0.6-0.4 0.4-1 1.1-0.4 0.8-0.9 1.5-0.3 0.6-0.4 1zm65.5-5.7q4.1-3.1 6-6 2.1-2.9 3.2-5.9 1.2-2.9 2-6.1 0.7-3.4 2.3-7.3-0.5-1.1-0.7-1.8 0-0.9 0-2 0-1.2 0.3-2.8 0.5-1.6 1.2-3 0.7-1.4 1.8-2.4 1-1.1 2.5-1.1-0.2 0.6 1.6 1.4 1.9 0.7 4.5 1.6 2.8 0.9 5.9 1.9 3 1.1 5.4 2.2 2.6 1.5 3.6 3.3 1.2 1.6 1.2 4.7 0 2.8-0.8 6.3-0.6 3.5-1.3 7.1-0.6 3.6-1.4 7.2-0.6 3.5-0.6 6.5v3.8q-0.1 1.3 0.6 1.4 0.9 0 1.6 0 1.8 0 3.2-0.5 1.5-0.6 3-1.3 1.6-0.8 3-1.4 1.5-0.7 3.1-1l12.9-7.8q0.6-1.1 1.5-1.6 1-0.8 1.9-1.3 1.5-0.9 3.5-2.5 1.1-0.9 2.3-1.8h4.3q0.5 0 0.6 0.9 0.2 0.9 0.2 1.3 0 1.8-2.5 4.4-2.5 2.7-6.5 5.4-4 2.8-8.8 5.6-4.9 2.6-9.5 4.8-4.6 2.1-8.6 3.4-3.8 1.3-5.8 1.3-2.7 0-4.3-1.3-1.6-1.3-2.6-3.2-1-1.9-1.4-4.1-0.3-2.4-0.3-4.6 0-1.6 1-4.5 1.1-2.9 2.4-6 1.3-3.1 2.4-6 1-2.9 1-4.7 0-0.1-2.2-1.2-2-1-4.5-2.2-2.5-1.3-4.7-2.2-2.1-1-2.1-1.2-3.2 3.4-4.5 7.2-1.2 3.8-2.5 7.9-1.2 4.1-3.7 8.2-2.4 4.1-8.1 8-0.2 0-0.7-0.2-0.5-0.1-1.1-0.7-0.4-0.7-0.7-2-0.3-1.5-0.1-4.1z"/></svg>